<?xml version="1.0" encoding="utf-8"?>
<!-- Generator: Adobe Illustrator 23.1.1, SVG Export Plug-In . SVG Version: 6.00 Build 0)  -->
<svg version="1.1" id="Layer_1" xmlns="http://www.w3.org/2000/svg" xmlns:xlink="http://www.w3.org/1999/xlink" x="0px" y="0px"
	 viewBox="0 0 600 138.6" style="enable-background:new 0 0 600 138.6;" xml:space="preserve">
<style type="text/css">
	.st0{display:none;}
	.st1{display:inline;fill:#00D0FF;}
	.st2{display:inline;fill:#FFFFFF;}
	.st3{fill:#3366CC;}
	.st4{fill:#F3F8FF;}
	.st5{fill:#4CDAF2;}
	.st6{fill:#5800FF;}
	.st7{fill:#F6F3FF;}
	.st8{fill:#0086FF;}
	.st9{fill:#52B8D7;}
	.st10{fill:#FFFFFF;}
</style>
<g class="st0">
	<path class="st1" d="M60.3,120.9c-1.1,0.1-1.9,0.2-2.4,0.2s-0.9,0-1.3,0c-2,0-3.5-0.5-4.5-1.5s-1.5-2.9-1.5-5.6V29H30.3v85.4
		c0,7.8,1.5,13.6,4.6,17.3s9.1,5.6,18.1,5.6c0.6,0,1.5,0,2.7-0.1c1.2,0,2.7-0.1,4.5-0.1L60.3,120.9L60.3,120.9z M30.3,19.4h20.2V0.7
		H30.3V19.4z"/>
	<path class="st1" d="M110.4,59c3.8-0.5,6.5-1.1,8.1-1.8c2.9-1.2,4.4-3.1,4.4-5.8c0-3.2-1.1-5.4-3.3-6.6c-2.2-1.2-5.5-1.8-9.8-1.8
		c-4.8,0-8.3,1.2-10.3,3.6c-1.4,1.8-2.4,4.1-2.9,7.1H77c0.4-6.8,2.3-12.3,5.7-16.7c5.4-6.8,14.6-10.2,27.7-10.2
		c8.5,0,16.1,1.7,22.7,5c6.6,3.4,9.9,9.7,9.9,19v35.5c0,2.5,0,5.4,0.1,8.9c0.1,2.7,0.5,4.5,1.2,5.4s1.7,1.7,3,2.3v3h-22
		c-0.6-1.6-1-3-1.3-4.4c-0.2-1.4-0.4-2.9-0.6-4.7c-2.8,3-6,5.6-9.7,7.7c-4.4,2.5-9.3,3.8-14.9,3.8c-7,0-12.9-2-17.5-6
		s-6.9-9.7-6.9-17c0-9.5,3.7-16.4,11.1-20.7c4.1-2.3,10-4,17.9-5L110.4,59z M122.8,68.4c-1.3,0.8-2.6,1.5-3.9,2s-3.1,1-5.4,1.4
		l-4.6,0.9c-4.3,0.8-7.4,1.7-9.3,2.8c-3.2,1.8-4.8,4.7-4.8,8.6c0,3.5,1,6,2.9,7.5s4.3,2.3,7.1,2.3c4.4,0,8.5-1.3,12.2-3.8
		c3.7-2.6,5.7-7.2,5.8-14C122.8,76.1,122.8,68.4,122.8,68.4z"/>
	<path class="st1" d="M212.9,29.9c3.6,2.1,6.6,4.9,8.9,8.6v-37h20.5V106h-19.7V95.3c-2.9,4.6-6.2,7.9-9.9,10s-8.3,3.1-13.8,3.1
		c-9,0-16.7-3.7-22.8-11c-6.2-7.3-9.3-16.7-9.3-28.2c0-13.2,3-23.6,9.1-31.2s14.2-11.4,24.4-11.4C205.1,26.8,209.2,27.8,212.9,29.9z
		 M217.8,85c3-4.3,4.5-9.8,4.5-16.5c0-9.5-2.4-16.2-7.2-20.3c-2.9-2.5-6.3-3.7-10.2-3.7c-5.9,0-10.3,2.2-13,6.7
		c-2.8,4.5-4.2,10-4.2,16.7c0,7.1,1.4,12.9,4.2,17.1c2.8,4.3,7.1,6.4,12.8,6.4C210.5,91.4,214.9,89.3,217.8,85z"/>
	<path class="st1" d="M286,30.2c-5.4,2.4-9.9,6.2-13.4,11.5c-3.2,4.6-5.2,9.9-6.2,16c-0.5,3.6-0.8,8.7-0.7,15.4h56.4
		c-0.3,7.8-3,13.2-8.1,16.3c-3.1,1.9-6.8,2.9-11.2,2.9c-4.6,0-8.4-1.2-11.2-3.6c-1.6-1.3-3-3.1-4.2-5.3h-20.7c0.5,4.6,3,9.3,7.5,14
		c6.9,7.5,16.6,11.3,29.1,11.3c10.3,0,19.4-3.2,27.3-9.5s11.8-16.7,11.8-31c0-13.4-3.6-23.7-10.7-30.8c-7.1-7.2-16.3-10.7-27.7-10.7
		C297.4,26.6,291.4,27.8,286,30.2z M316.3,47.7c2.9,2.9,4.7,6.9,5.4,12h-34.9c0.4-5.4,2.2-9.4,5.4-12.2s7.2-4.2,12-4.2
		C309.4,43.3,313.4,44.8,316.3,47.7z"/>
</g>
<g>
	
		<text transform="matrix(1 0 0 1 13.7746 -67.5061)" class="st10" style="font-family:'Helvetica-Bold'; font-size:99.9795px; letter-spacing:17;">d͡ʒeɪd;</text>
</g>
<g>
	
		<text transform="matrix(1 0 0 1 668.0266 -431.7269)" class="st10" style="font-family:'Helvetica-Bold'; font-size:99.9795px; letter-spacing:17;">d͡ʒeɪd;</text>
</g>
<g>
	
		<text transform="matrix(1 0 0 1 622.5164 -179.5194)" class="st10" style="font-family:'Helvetica-Bold'; font-size:99.9795px; letter-spacing:17;">jade;</text>
</g>
<g class="st0">
	<path class="st2" d="M10.9,121.2c1.1,0.1,1.9,0.1,2.4,0.2c0.5,0,0.9,0,1.3,0c1.9,0,3.4-0.5,4.4-1.4s1.5-2.8,1.5-5.5V31.3h19.8v83.5
		c0,7.6-1.5,13.3-4.5,17s-8.9,5.5-17.7,5.5c-0.6,0-1.5,0-2.7-0.1c-1.2,0-2.7-0.1-4.4-0.1L10.9,121.2L10.9,121.2z M40.3,21.9H20.5
		V3.6h19.8V21.9z"/>
	<path class="st2" d="M113.1,60.6c3.7-0.5,6.3-1,7.9-1.7c2.8-1.2,4.3-3.1,4.3-5.6c0-3.1-1.1-5.2-3.3-6.4s-5.4-1.8-9.6-1.8
		c-4.7,0-8.1,1.2-10.1,3.5c-1.4,1.7-2.3,4-2.8,6.9H80.4c0.4-6.6,2.3-12.1,5.6-16.3c5.3-6.7,14.3-10,27.1-10c8.3,0,15.7,1.6,22.2,4.9
		s9.7,9.5,9.7,18.6v34.7c0,2.4,0,5.3,0.1,8.8c0.1,2.6,0.5,4.4,1.2,5.3c0.6,0.9,1.6,1.7,2.9,2.3v2.9h-21.5c-0.6-1.5-1-3-1.3-4.3
		c-0.2-1.3-0.4-2.9-0.6-4.6c-2.7,3-5.9,5.5-9.5,7.6c-4.3,2.5-9.1,3.7-14.5,3.7c-6.9,0-12.6-2-17.1-5.9S78,93.7,78,86.6
		c0-9.3,3.6-16,10.8-20.2c4-2.3,9.8-3.9,17.5-4.9L113.1,60.6z M125.2,69.8c-1.3,0.8-2.5,1.4-3.8,1.9s-3.1,0.9-5.3,1.4l-4.5,0.8
		c-4.2,0.7-7.3,1.6-9.1,2.7c-3.1,1.8-4.7,4.6-4.7,8.4c0,3.4,1,5.8,2.9,7.3s4.2,2.3,6.9,2.3c4.3,0,8.3-1.3,12-3.8
		c3.6-2.5,5.5-7.1,5.7-13.7L125.2,69.8L125.2,69.8z"/>
	<path class="st2" d="M226.5,32.2c3.6,2,6.5,4.8,8.7,8.4V4.4h20.1v102.3H236V96.2c-2.8,4.5-6,7.8-9.7,9.8c-3.6,2-8.1,3.1-13.5,3.1
		c-8.8,0-16.3-3.6-22.3-10.7c-6-7.2-9.1-16.3-9.1-27.5c0-12.9,3-23.1,8.9-30.5c6-7.4,13.9-11.1,23.9-11.1
		C218.8,29.1,222.9,30.1,226.5,32.2z M231.3,86.1c2.9-4.2,4.4-9.6,4.4-16.2c0-9.3-2.3-15.9-7-19.9c-2.9-2.4-6.2-3.6-10-3.6
		c-5.8,0-10,2.2-12.7,6.6s-4.1,9.8-4.1,16.3c0,7,1.4,12.6,4.1,16.8c2.8,4.2,6.9,6.3,12.5,6.3C224.2,92.4,228.4,90.3,231.3,86.1z"/>
	<path class="st2" d="M346.6,32.5c5.3,2.4,9.6,6.1,13.1,11.2c3.1,4.5,5.1,9.7,6,15.7c0.5,3.5,0.8,8.5,0.7,15h-55.2
		c0.3,7.6,2.9,12.9,7.9,16c3,1.9,6.7,2.8,10.9,2.8c4.5,0,8.2-1.2,11-3.5c1.5-1.2,2.9-3,4.1-5.2h20.2c-0.5,4.5-3,9.1-7.3,13.7
		c-6.8,7.4-16.3,11-28.5,11c-10.1,0-19-3.1-26.7-9.3c-7.7-6.2-11.6-16.3-11.6-30.3c0-13.1,3.5-23.2,10.4-30.2c7-7,16-10.5,27.1-10.5
		C335.4,28.9,341.4,30.1,346.6,32.5z M317,49.6c-2.8,2.9-4.6,6.8-5.3,11.7h34.1c-0.4-5.3-2.1-9.2-5.3-12s-7.1-4.1-11.7-4.1
		C323.8,45.2,319.8,46.7,317,49.6z"/>
	<path class="st2" d="M407.4,33.9h21.1v20.8h-21.1V33.9z M407.4,123.1c4.7-1.3,7.9-3.7,9.8-7.2c1.2-2.1,1.9-5.2,2.2-9.3h-12V85.9
		h21.4v18c0,3.2-0.4,6.5-1.3,9.9c-0.8,3.4-2.4,6.4-4.7,8.9c-2.4,2.6-5.2,4.7-8.5,6c-3.3,1.3-5.7,2.1-6.9,2.1V123.1z"/>
</g>
<rect x="-652.9" y="-385.6" class="st3" width="39.1" height="39.1"/>
<rect x="-594.1" y="-385.6" class="st4" width="39.1" height="39.1"/>
<rect x="-535.4" y="-385.6" class="st5" width="39.1" height="39.1"/>
<rect x="-652.9" y="-451.3" class="st6" width="39.1" height="39.1"/>
<rect x="-594.1" y="-451.3" class="st7" width="39.1" height="39.1"/>
<rect x="-535.4" y="-451.3" class="st8" width="39.1" height="39.1"/>
<rect x="-651.3" y="-546.9" class="st9" width="28.5" height="28.5"/>
<text transform="matrix(1 0 0 1 -613.782 -518.3976)" style="font-family:'Helvetica-Bold'; font-size:29.8603px; letter-spacing:7;">#52b8d7</text>
<g>
	<path class="st10" d="M104.4,67.8c4.6,3.7,11.5,3.3,15.4-1c4-4.3,3.5-10.8-1.1-14.5c-1-0.8-2.2-1.5-3.4-1.9
		c0.7-2.8,3.6-5.6,6.1-5.9c0,0,0-1.3,0-1.4c-6.5,1-13.2,4.9-17.9,9.9c0,0,0,0,0,0c-0.1,0.1-0.2,0.2-0.3,0.3
		C99.3,57.6,99.8,64.1,104.4,67.8z"/>
	<path class="st10" d="M177.4,118.7c-0.7,0-2.2,3.4-6.8,3.4c-2.9,0-4.5-4.4-4.5-9.3V57.3c0-10.1-13.5-17.5-26.1-17.5
		c-4.3,0-8.7,0.7-13.1,1.8V43c0.9-0.3,1.6-0.4,2.3-0.4c4.9,0,9.2,3.6,9.2,7.8v20.1v7.4v1.9v17.2v16.4c-3.6,3.6-7,7-13,7
		c-7.7,0-13.1-6.9-13.3-13.8c-0.2-6.4,3.1-14,8.3-19.3c3-3,6.5-5.3,6.5-5.3c-0.9,0.3-5.6,1.7-7.7,2.6c-13.1,5.6-25.6,13.3-25.6,27.5
		c0,4.3,3.4,16.6,19.9,16.5c13.1,0,15.5-4.8,25.2-12.4c1.3,7.4,8.8,13.5,17.5,13.5c15.3,0,21.8-9.7,21.8-10.3
		C178.1,118.9,177.9,118.7,177.4,118.7z"/>
</g>
<g>
	<g>
		<path class="st10" d="M68.8,44.4c0,0-13.5,8.1-38.5,3.8v1.1c13,1.5,24.9,2,24.9,7v35.4c0,6.3,0.4,22.4,0.4,27.2
			c0,8.5-7.2,9.7-7.2,9.7s1.2,0.5,1.2,1.1c0,0,7.6,0.5,12.3-0.7c20.5-5,20.8-16.3,20.8-31.5V44.4H68.8z"/>
		<path class="st10" d="M34,104c-4-4.6-11.1-5.3-16-1.5c-4.9,3.7-5.6,10.4-1.6,15c0.1,0.1,0.2,0.2,0.3,0.3c0,0,0,0,0,0
			c4.7,5.3,11.5,9.6,18.2,10.9c0-0.1,0-1.4,0-1.4c-2.6-0.5-5.5-3.4-6.1-6.4c1.3-0.4,2.5-1,3.6-1.8C37.2,115.3,37.9,108.6,34,104z"/>
	</g>
	<path class="st10" d="M67.8,36.4c7.7,0,13.9-5.8,13.9-13c0-7.2-6.2-13-13.9-13c-7.7,0-13.9,5.8-13.9,13
		C54,30.6,60.2,36.4,67.8,36.4z"/>
</g>
</svg>
